<mxfile host="app.diagrams.net" modified="2024-04-23T08:48:27.187Z" agent="Mozilla/5.0 (Macintosh; Intel Mac OS X 10_15_7) AppleWebKit/537.36 (KHTML, like Gecko) Chrome/124.0.0.0 Safari/537.36" version="24.0.6" etag="Q9Vj1T5Y2lDNVuYYbI_v" type="github">
  <diagram name="第 1 页" id="ADWS8KvVb-Phw36fm134">
    <mxGraphModel>
      <root>
        <mxCell id="0" />
        <mxCell id="1" parent="0" />
      </root>
    </mxGraphModel>
  </diagram>
</mxfile>
